<?xml version="1.0" standalone="no"?>
<!DOCTYPE svg PUBLIC "-//W3C//DTD SVG 20010904//EN"
 "http://www.w3.org/TR/2001/REC-SVG-20010904/DTD/svg10.dtd">
<svg version="1.0" xmlns="http://www.w3.org/2000/svg"
 width="64" height="64" viewBox="0 0 256.000000 256.000000"
 preserveAspectRatio="xMidYMid meet">

<g transform="translate(0.000000,256.000000) scale(0.100000,-0.100000)"
fill="#000000" stroke="none">
<path d="M1160 2485 c-8 -2 -49 -9 -90 -15 -363 -59 -699 -308 -868 -645 -94
-189 -126 -327 -126 -545 0 -215 33 -360 123 -540 234 -468 744 -733 1261
-656 334 51 637 243 824 523 478 719 84 1676 -764 1859 -68 14 -323 28 -360
19z m612 -749 c249 -225 462 -418 473 -428 20 -19 20 -20 -49 -84 -37 -35 -71
-64 -75 -64 -3 0 -158 137 -343 305 -186 168 -340 305 -343 305 -6 0 -4 -813
3 -933 l4 -78 126 123 c70 67 128 129 130 136 2 7 -29 43 -68 80 l-71 67 3
127 3 127 210 -190 c116 -105 211 -194 213 -198 3 -9 -677 -676 -682 -670 -2
2 -7 236 -10 519 -3 283 -9 690 -12 904 -6 390 -6 390 14 375 11 -7 224 -198
474 -423z m-508 -393 c3 -450 8 -858 11 -906 4 -54 2 -88 -4 -85 -13 5 -971
870 -971 877 0 8 680 674 684 670 2 -2 6 -183 10 -402 l6 -399 -37 30 c-21 17
-52 45 -70 64 -32 33 -32 33 -39 171 l-7 139 -129 -129 c-70 -70 -128 -132
-128 -138 0 -10 513 -477 532 -484 7 -2 8 195 3 639 l-8 642 64 64 c35 35 66
64 70 64 4 0 9 -368 13 -817z"/>
</g>
</svg>
